<svg width="362" height="278" viewBox="0 0 362 278" fill="none" xmlns="http://www.w3.org/2000/svg">
<path d="M92.5107 176.978C92.5108 188.085 101.515 197.089 112.622 197.089H269.489V257.419C269.489 268.526 260.485 277.53 249.378 277.53H20.1113C9.00435 277.53 0.000125964 268.526 0 257.419V100.552C0.000167198 89.4448 9.00437 80.4414 20.1113 80.4414H92.5107V176.978ZM341.889 0C352.996 0 362 9.00346 362 20.1104V176.978C362 188.085 352.996 197.089 341.889 197.089H269.489V100.552C269.489 89.4449 260.485 80.4415 249.378 80.4414H92.5107V20.1104C92.5109 9.00346 101.515 0 112.622 0H341.889Z" fill="white"/>
</svg>
